<svg xmlns="http://www.w3.org/2000/svg" xmlns:xlink="http://www.w3.org/1999/xlink" width="2000" zoomAndPan="magnify" viewBox="0 0 1500 1499.999933" height="2000" preserveAspectRatio="xMidYMid meet" version="1.0"><path fill="#000000" d="M 426.269531 432.128906 L 974.121094 432.128906 L 971.191406 439.453125 L 952.148438 462.890625 L 933.105469 487.792969 L 902.34375 527.34375 L 886.230469 547.851562 L 877.441406 559.570312 L 563.964844 561.035156 L 506.835938 561.035156 L 503.90625 571.289062 L 493.652344 593.261719 L 477.539062 628.417969 L 452.636719 685.546875 L 779.296875 685.546875 L 776.367188 692.871094 L 757.324219 719.238281 L 754.394531 719.238281 L 751.464844 725.097656 L 739.746094 741.210938 L 692.871094 802.734375 L 684.082031 814.453125 L 391.113281 814.453125 L 389.648438 823.242188 L 380.859375 843.75 L 370.605469 865.722656 L 357.421875 896.484375 L 350.097656 911.132812 L 331.054688 953.613281 L 319.335938 978.515625 L 306.152344 1009.277344 L 294.433594 1034.179688 L 281.25 1063.476562 L 278.320312 1067.871094 L 140.625 1067.871094 L 143.554688 1054.6875 L 166.992188 1003.417969 L 193.359375 944.824219 L 210.9375 905.273438 L 221.191406 883.300781 L 232.910156 856.933594 L 243.164062 834.960938 L 257.8125 801.269531 L 268.066406 779.296875 L 288.574219 733.886719 L 309.082031 689.941406 L 331.054688 641.601562 L 355.957031 584.472656 L 366.210938 562.5 L 388.183594 515.625 L 398.4375 492.1875 L 416.015625 452.636719 L 421.875 440.917969 L 424.804688 433.59375 Z M 426.269531 432.128906 " fill-opacity="1" fill-rule="nonzero"/><path fill="#000000" d="M 1214.355469 432.128906 L 1360.839844 432.128906 L 1357.910156 440.917969 L 1337.402344 474.609375 L 1325.683594 493.652344 L 1303.710938 530.273438 L 1293.457031 546.386719 L 1270.019531 584.472656 L 1255.371094 609.375 L 1242.1875 629.882812 L 1230.46875 648.925781 L 1205.566406 689.941406 L 1185.058594 722.167969 L 1167.480469 751.464844 L 1120.605469 827.636719 L 1105.957031 851.074219 L 1082.519531 889.160156 L 1066.40625 915.527344 L 1037.109375 962.402344 L 1019.53125 991.699219 L 982.910156 1050.292969 L 972.65625 1066.40625 L 971.191406 1067.871094 L 811.523438 1067.871094 L 804.199219 1044.433594 L 791.015625 993.164062 L 785.15625 972.65625 L 769.042969 911.132812 L 758.789062 873.046875 L 750 837.890625 L 745.605469 821.777344 L 745.605469 814.453125 L 760.253906 795.410156 L 777.832031 771.972656 L 789.550781 755.859375 L 804.199219 736.816406 L 830.566406 701.660156 L 842.285156 687.011719 L 845.214844 687.011719 L 851.074219 704.589844 L 856.933594 729.492188 L 873.046875 789.550781 L 878.90625 814.453125 L 884.765625 833.496094 L 890.625 856.933594 L 905.273438 912.597656 L 908.203125 925.78125 L 912.597656 921.386719 L 930.175781 892.089844 L 946.289062 867.1875 L 956.542969 849.609375 L 979.980469 811.523438 L 1001.953125 776.367188 L 1019.53125 747.070312 L 1056.152344 688.476562 L 1067.871094 669.433594 L 1085.449219 640.136719 L 1107.421875 604.980469 L 1120.605469 583.007812 L 1132.324219 563.964844 L 1146.972656 540.527344 L 1171.875 499.511719 L 1189.453125 471.679688 L 1212.890625 433.59375 Z M 1214.355469 432.128906 " fill-opacity="1" fill-rule="nonzero"/></svg>